<svg width="496" height="135" viewBox="0 0 496 135" fill="none" xmlns="http://www.w3.org/2000/svg">
<path d="M17.0921 42.6892C18.6281 42.6892 20.0041 42.2412 21.2201 41.3452C22.4361 40.3852 23.0441 38.7852 23.0441 36.5452C23.0441 34.6252 21.8601 32.6092 19.4921 30.4972C18.5321 29.6012 17.5081 28.8012 16.4201 28.0972C15.3321 27.3932 14.3081 26.7212 13.3481 26.0812C12.3881 25.3772 11.3321 24.6412 10.1801 23.8732C9.09206 23.1052 8.10006 22.2412 7.20406 21.2812C5.34806 19.1692 4.42006 16.6412 4.42006 13.6972C4.42006 10.5612 5.86006 7.8412 8.74006 5.5372C11.4281 3.3612 14.5001 2.2732 17.9561 2.2732C19.8121 2.2732 21.5401 2.4652 23.1401 2.8492C24.8041 3.2332 26.5961 3.6172 28.5161 4.0012C28.7081 5.6652 28.8361 7.3612 28.9001 9.0892C29.0281 10.8172 29.1561 12.6412 29.2841 14.5612C29.0281 14.8172 28.8041 14.9452 28.6121 14.9452C27.3961 14.9452 26.7561 14.7852 26.6921 14.4652C26.3721 12.3532 25.5081 10.3372 24.1001 8.4172C22.4361 6.1132 20.4841 4.9612 18.2441 4.9612C16.9641 4.9612 15.7481 5.3452 14.5961 6.1132C13.4441 6.8812 12.8681 8.3212 12.8681 10.4332C12.8681 13.1852 15.9081 16.5772 21.9881 20.6092C23.0121 21.3132 24.0681 22.0492 25.1561 22.8172C26.3081 23.5212 27.3321 24.3532 28.2281 25.3132C30.2761 27.6172 31.3001 30.4012 31.3001 33.6652C31.3001 37.0572 29.8601 39.8732 26.9801 42.1132C24.2281 44.2892 21.0921 45.3772 17.5721 45.3772C13.8601 45.3772 9.82806 44.8012 5.47606 43.6492C4.83606 40.2572 4.42006 37.7292 4.22806 36.0652C4.10006 34.4012 4.00406 33.3452 3.94006 32.8972C4.06806 32.7052 4.35606 32.5132 4.80406 32.3212C5.31606 32.1292 5.73206 32.0332 6.05206 32.0332C6.37206 32.0332 6.56406 32.1932 6.62806 32.5132C6.94806 34.5612 8.03606 36.7052 9.89206 38.9452C12.0681 41.4412 14.4681 42.6892 17.0921 42.6892ZM32.9264 19.7452C33.4384 19.0412 34.1104 18.3372 34.9424 17.6332H37.7264V14.2732C38.9424 13.1852 40.0944 12.0332 41.1824 10.8172C42.3344 9.6012 43.3904 8.5132 44.3504 7.5532C44.7344 7.2972 45.0864 7.2012 45.4064 7.2652C45.7264 7.2652 45.9184 7.3612 45.9824 7.5532V17.6332H53.1824C53.4384 17.6332 53.5664 17.9532 53.5664 18.5932C53.5664 19.1692 53.0864 19.8412 52.1264 20.6092H45.9824V36.2572C45.9824 39.4572 47.1344 41.0572 49.4384 41.0572C50.1424 41.0572 50.8464 40.8652 51.5504 40.4812C52.2544 40.0332 52.6704 39.7452 52.7984 39.6172C53.0544 39.8732 53.1824 40.0972 53.1824 40.2892C53.1824 40.8652 53.0544 41.2812 52.7984 41.5372C52.6064 41.7932 52.2864 42.1132 51.8384 42.4972C51.4544 42.8812 50.9744 43.2652 50.3984 43.6492C48.7344 44.6732 47.3264 45.1852 46.1744 45.1852C45.0864 45.1852 44.0304 45.0252 43.0064 44.7052C42.0464 44.4492 41.1824 43.9372 40.4144 43.1692C38.6224 41.5692 37.7264 39.1372 37.7264 35.8732V20.6092H33.2144C33.0224 20.4812 32.9264 20.1932 32.9264 19.7452ZM68.8434 40.7692C69.6754 40.7692 70.3154 40.6092 70.7634 40.2892C71.2754 39.9052 71.5314 39.6172 71.5314 39.4252V30.5932C70.8274 30.9132 70.0914 31.2332 69.3234 31.5532C68.6194 31.8092 67.8834 32.1932 67.1154 32.7052C65.7074 33.6652 65.0034 34.9452 65.0034 36.5452C65.0674 38.1452 65.5154 39.2652 66.3474 39.9052C67.1794 40.4812 68.0114 40.7692 68.8434 40.7692ZM83.0514 39.8092C83.3714 40.0012 83.5314 40.2892 83.5314 40.6732C83.5314 41.0572 83.4354 41.4412 83.2434 41.8252C82.8594 42.2092 82.1874 42.7212 81.2274 43.3612C79.4994 44.5132 78.0594 45.0892 76.9074 45.0892C75.7554 45.0892 74.6994 44.7692 73.7394 44.1292C72.8434 43.4252 72.2354 42.6892 71.9154 41.9212C71.0194 42.8172 69.7394 43.5852 68.0754 44.2252C66.4754 44.8652 65.2274 45.1852 64.3314 45.1852C63.4354 45.1852 62.4754 44.9612 61.4514 44.5132C60.4274 44.0652 59.5634 43.4892 58.8594 42.7852C57.2594 41.1852 56.4594 39.5852 56.4594 37.9852C56.4594 36.3852 56.7794 35.1372 57.4194 34.2412C58.1234 33.2812 58.8274 32.7052 59.5314 32.5132C60.2994 32.2572 61.1634 31.9372 62.1234 31.5532C63.1474 31.1692 64.2354 30.7532 65.3874 30.3052C66.8594 29.7932 68.9074 29.0252 71.5314 28.0012V25.0252C71.5314 23.4252 71.1794 21.9852 70.4754 20.7052C69.7714 19.3612 68.8434 18.6892 67.6914 18.6892C66.5394 18.6892 65.7074 19.2012 65.1954 20.2252C64.7474 21.2492 64.4274 22.3052 64.2354 23.3932C63.7234 25.6332 62.4754 26.7532 60.4914 26.7532C59.6594 26.7532 58.8914 26.4972 58.1874 25.9852C57.5474 25.4092 57.2274 24.8012 57.2274 24.1612C57.2274 23.2652 57.5154 22.2412 58.0914 21.0892C58.7954 20.3852 59.9474 19.6172 61.5474 18.7852C64.8114 17.1212 67.7234 16.2892 70.2834 16.2892C72.9074 16.2892 75.1154 17.1852 76.9074 18.9772C78.7634 20.7692 79.6914 23.1052 79.6914 25.9852V37.7932C79.6914 38.6892 79.8514 39.3612 80.1714 39.8092C80.4914 40.1932 80.8434 40.3852 81.2274 40.3852C81.6754 40.3852 82.0594 40.2892 82.3794 40.0972L83.0514 39.8092ZM105.633 16.6732C107.425 16.9292 109.601 17.0572 112.161 17.0572C114.785 17.0572 116.993 16.9292 118.785 16.6732C118.913 16.8012 118.977 17.1532 118.977 17.7292C119.041 18.3052 118.977 18.7212 118.785 18.9772C117.313 18.9772 116.129 19.2332 115.233 19.7452C114.401 20.1932 113.889 20.6412 113.697 21.0892L100.833 48.2572C98.9767 51.8412 96.8647 54.5932 94.4967 56.5132C92.8327 57.8572 91.2647 58.5292 89.7927 58.5292C88.3207 58.5292 87.2007 58.1772 86.4327 57.4732C85.7287 56.8332 85.3767 55.9692 85.3767 54.8812C85.3767 53.8572 85.8567 52.9612 86.8167 52.1932C89.3127 52.1932 91.3607 51.9052 92.9607 51.3292C94.5607 50.7532 96.0007 49.3772 97.2807 47.2012C97.9207 46.2412 98.6567 44.7692 99.4887 42.7852L89.0247 21.3772C88.5767 20.4172 87.8407 19.7772 86.8167 19.4572C85.8567 19.1372 85.2487 18.9772 84.9927 18.9772C84.8007 18.7212 84.7367 18.3372 84.8007 17.8252C84.8007 17.2492 84.8647 16.8652 84.9927 16.6732C85.4407 16.7372 86.4007 16.8012 87.8727 16.8652C89.4087 16.9292 90.5607 16.9932 91.3287 17.0572C92.1607 17.0572 93.6647 17.0572 95.8407 17.0572C98.0807 17.0572 99.9687 16.9292 101.505 16.6732C101.697 16.8012 101.793 17.1852 101.793 17.8252C101.793 18.4012 101.697 18.7852 101.505 18.9772C101.121 18.9772 100.545 19.1052 99.7767 19.3612C98.4327 19.7452 97.7607 20.1932 97.7607 20.7052V21.0892C97.7607 21.2812 97.8247 21.4732 97.9527 21.6652L104.481 34.1452L109.473 23.0092C109.921 21.8572 110.145 21.0892 110.145 20.7052C110.145 20.3212 109.921 20.0012 109.473 19.7452C109.089 19.4892 108.609 19.2972 108.033 19.1692C107.137 19.0412 106.337 18.9772 105.633 18.9772C105.505 18.8492 105.441 18.4972 105.441 17.9212C105.441 17.2812 105.505 16.8652 105.633 16.6732ZM155.737 44.9932C149.721 44.4172 143.705 44.4172 137.689 44.9932C137.561 44.8012 137.497 44.4172 137.497 43.8412C137.497 43.2652 137.561 42.8492 137.689 42.5932C139.033 42.5932 140.025 42.4652 140.665 42.2092C141.305 41.8892 141.689 41.6332 141.817 41.4412C142.137 40.6732 142.297 38.6892 142.297 35.4892V12.1612C142.297 9.0892 142.137 7.1052 141.817 6.2092C141.369 5.5692 139.993 5.2492 137.689 5.2492C137.561 4.9932 137.497 4.5772 137.497 4.0012C137.497 3.4252 137.561 3.0412 137.689 2.8492C139.161 2.9772 140.697 3.0412 142.297 3.0412H146.809L156.505 2.8492C160.601 2.8492 164.025 3.8412 166.777 5.8252C169.657 7.8732 171.097 10.6572 171.097 14.1772C171.097 17.7612 169.753 20.7692 167.065 23.2012C164.633 25.4412 161.753 26.5612 158.425 26.5612C157.273 26.5612 156.313 26.3692 155.545 25.9852C154.777 25.6012 154.265 25.3132 154.009 25.1212C153.817 24.8652 153.657 24.4492 153.529 23.8732C153.465 23.2972 153.529 23.0092 153.721 23.0092C154.169 23.2012 155.097 23.2972 156.505 23.2972C157.977 23.2972 159.193 22.5292 160.153 20.9932C161.177 19.4572 161.689 17.7932 161.689 16.0012C161.689 14.1452 161.529 12.6412 161.209 11.4892C160.889 10.2732 160.409 9.2492 159.769 8.4172C158.297 6.4332 156.601 5.4412 154.681 5.4412C153.913 5.4412 153.209 5.4732 152.569 5.5372C151.993 5.6012 151.641 5.8252 151.513 6.2092C151.257 6.7212 151.129 8.0012 151.129 10.0492V35.4892C151.129 36.8972 151.129 38.0812 151.129 39.0412C151.193 40.0012 151.321 40.7052 151.513 41.1532C151.705 41.5372 151.961 41.8252 152.281 42.0172C152.665 42.1452 153.049 42.2732 153.433 42.4012C154.137 42.5292 154.905 42.5932 155.737 42.5932C155.865 42.8492 155.929 43.2652 155.929 43.8412C155.929 44.4172 155.865 44.8012 155.737 44.9932ZM184.555 44.5132C181.931 44.5132 179.019 44.6732 175.819 44.9932C175.691 44.8012 175.627 44.4172 175.627 43.8412C175.627 43.2652 175.691 42.8492 175.819 42.5932C177.163 42.5932 178.155 42.4652 178.795 42.2092C179.435 41.8892 179.819 41.6332 179.947 41.4412C180.267 40.6732 180.427 38.6892 180.427 35.4892V27.2332C180.427 26.7212 180.363 25.9532 180.235 24.9292C180.107 23.9052 179.979 23.2652 179.851 23.0092C179.403 22.1772 178.059 21.7612 175.819 21.7612C175.691 21.6972 175.627 21.3772 175.627 20.8012C175.691 20.1612 175.787 19.8412 175.915 19.8412C178.347 19.6492 180.715 19.2012 183.019 18.4972C185.323 17.7292 187.083 17.0572 188.299 16.4812C188.491 16.5452 188.715 16.7052 188.971 16.9612C189.227 17.2172 189.323 17.4092 189.259 17.5372C189.259 17.6652 189.227 17.9532 189.163 18.4012C189.099 18.8492 189.035 19.3612 188.971 19.9372C188.907 20.4492 188.843 20.9612 188.779 21.4732C188.715 21.9852 188.683 22.3372 188.683 22.5292C188.683 22.6572 188.747 22.7532 188.875 22.8172C189.003 22.8172 189.067 22.7852 189.067 22.7212C190.219 20.8012 191.179 19.4572 191.947 18.6892C193.611 17.1532 195.307 16.3852 197.035 16.3852C198.955 16.3852 200.267 16.7372 200.971 17.4412C201.483 18.2092 201.739 19.0732 201.739 20.0332C201.739 20.9292 201.643 21.6972 201.451 22.3372C201.259 22.9132 200.971 23.4572 200.587 23.9692C199.819 25.0572 198.923 25.6012 197.899 25.6012C197.323 25.6012 196.811 25.4092 196.363 25.0252C195.979 24.6412 195.595 24.2892 195.211 23.9692C194.891 23.6492 194.539 23.3612 194.155 23.1052C193.835 22.7852 193.387 22.6252 192.811 22.6252C192.235 22.6252 191.691 22.8492 191.179 23.2972C190.667 23.6812 190.219 24.1612 189.835 24.7372C189.067 25.8892 188.683 26.9132 188.683 27.8092V35.4892C188.683 38.6892 188.779 40.5452 188.971 41.0572C189.163 41.5052 189.419 41.8252 189.739 42.0172C190.059 42.1452 190.411 42.2732 190.795 42.4012C191.435 42.5292 192.107 42.5932 192.811 42.5932C192.939 42.8492 193.003 43.2652 193.003 43.8412C193.003 44.4172 192.939 44.8012 192.811 44.9932C189.611 44.6732 186.859 44.5132 184.555 44.5132ZM219.662 18.9772C216.782 18.9772 215.182 21.3452 214.862 26.0812C214.734 27.3612 214.67 28.6412 214.67 29.9212C214.67 31.2012 214.766 32.6092 214.958 34.1452C215.214 35.6172 215.63 36.9612 216.206 38.1772C217.422 41.0572 219.054 42.4972 221.102 42.4972C224.11 42.4972 225.806 40.1612 226.19 35.4892C226.254 34.2732 226.286 33.0252 226.286 31.7452C226.286 30.4652 226.158 29.0572 225.902 27.5212C225.646 25.9852 225.23 24.6092 224.654 23.3932C223.438 20.4492 221.774 18.9772 219.662 18.9772ZM220.43 16.3852C222.606 16.3852 224.59 16.7372 226.382 17.4412C228.238 18.1452 229.838 19.1372 231.182 20.4172C233.934 23.1052 235.31 26.4652 235.31 30.4972C235.31 34.4652 233.87 37.9212 230.99 40.8652C228.238 43.7452 224.75 45.1852 220.526 45.1852C216.11 45.1852 212.526 43.8092 209.774 41.0572C207.022 38.3052 205.646 34.9452 205.646 30.9772C205.646 27.0732 207.054 23.6492 209.87 20.7052C212.686 17.8252 216.206 16.3852 220.43 16.3852ZM258.189 43.6492V42.5932C258.189 42.3372 258.093 42.2732 257.901 42.4012C257.709 42.5292 257.357 42.7532 256.845 43.0732C256.333 43.3932 255.725 43.7132 255.021 44.0332C251.757 45.5052 248.717 45.5372 245.901 44.1292C243.021 42.7852 240.973 40.4812 239.757 37.2172C239.117 35.6172 238.797 33.6972 238.797 31.4572C238.797 29.1532 239.373 27.0412 240.525 25.1212C241.741 23.1372 243.213 21.5052 244.941 20.2252C246.669 18.9452 248.461 18.0172 250.317 17.4412C252.237 16.8012 253.901 16.4812 255.309 16.4812C256.717 16.4812 257.581 16.5132 257.901 16.5772C258.093 16.5772 258.189 16.0972 258.189 15.1372V9.3772C258.189 8.0332 258.061 7.0092 257.805 6.3052C257.613 5.9212 257.005 5.6332 255.981 5.4412C255.021 5.2492 254.349 5.1532 253.965 5.1532C253.837 5.1532 253.773 4.8652 253.773 4.2892C253.773 3.6492 253.837 3.2652 253.965 3.1372C257.549 2.8172 260.461 2.3372 262.701 1.6972C264.941 0.993201 266.125 0.673202 266.253 0.737203C266.445 0.737203 266.637 0.865202 266.829 1.1212C267.021 1.3772 267.117 1.6012 267.117 1.7932C266.669 3.5852 266.445 5.6972 266.445 8.1292V37.8892C266.445 38.4012 266.445 38.8492 266.445 39.2332C266.509 39.6172 266.701 39.9692 267.021 40.2892C267.405 40.6732 268.365 40.8652 269.901 40.8652C270.029 41.1212 270.093 41.4732 270.093 41.9212C270.093 42.3052 269.965 42.6572 269.709 42.9772C268.557 43.0412 266.925 43.3292 264.813 43.8412C261.037 44.7372 258.989 45.1852 258.669 45.1852C258.349 45.1852 258.189 44.6732 258.189 43.6492ZM254.157 41.1532C255.053 41.1532 255.949 40.8652 256.845 40.2892C257.741 39.7132 258.189 39.2332 258.189 38.8492V22.5292C258.189 21.9532 257.709 21.3452 256.749 20.7052C255.789 20.0012 254.701 19.6492 253.485 19.6492C252.333 19.6492 251.405 19.9372 250.701 20.5132C249.997 21.0252 249.421 21.7292 248.973 22.6252C248.205 24.3532 247.821 26.7852 247.821 29.9212C247.821 32.9932 248.365 35.6492 249.453 37.8892C250.605 40.0652 252.173 41.1532 254.157 41.1532ZM287.98 19.8412C292.14 19.5212 296.236 18.4012 300.268 16.4812C300.524 16.5452 300.78 16.7052 301.036 16.9612C301.292 17.2172 301.42 17.4092 301.42 17.5372C301.292 17.8572 301.132 18.7212 300.94 20.1292C300.748 21.4732 300.652 22.5932 300.652 23.4892V37.8892C300.652 38.4012 300.652 38.8492 300.652 39.2332C300.716 39.6172 300.908 39.9692 301.228 40.2892C301.612 40.6732 302.572 40.8652 304.108 40.8652C304.236 41.1212 304.3 41.4732 304.3 41.9212C304.3 42.3052 304.172 42.6572 303.916 42.9772C302.636 43.0412 300.556 43.4252 297.676 44.1292C294.796 44.8332 293.26 45.1852 293.068 45.1852C292.684 45.1852 292.492 44.6732 292.492 43.6492V42.5932C292.492 42.3372 292.428 42.2412 292.3 42.3052C289.42 44.0972 286.444 44.9932 283.372 44.9932C279.212 44.9932 276.62 42.6572 275.596 37.9852C275.34 36.5772 275.212 35.1372 275.212 33.6652V27.2332C275.212 26.7212 275.148 25.9532 275.02 24.9292C274.892 23.9052 274.764 23.2652 274.636 23.0092C274.316 22.3692 273.228 21.9852 271.372 21.8572C270.988 21.7932 270.732 21.7612 270.604 21.7612C270.54 21.6972 270.508 21.3772 270.508 20.8012C270.508 20.1612 270.572 19.8412 270.7 19.8412C273.132 19.6492 275.5 19.2012 277.804 18.4972C280.108 17.7292 281.868 17.0572 283.084 16.4812C283.34 16.5452 283.564 16.7052 283.756 16.9612C284.012 17.2172 284.14 17.4092 284.14 17.5372C284.012 17.7932 283.884 18.3372 283.756 19.1692C283.628 20.0012 283.532 20.7052 283.468 21.2812C283.468 21.8572 283.468 22.5932 283.468 23.4892V30.7852C283.468 34.1772 283.788 36.7692 284.428 38.5612C285.068 40.2892 286.38 41.1532 288.364 41.1532C289.26 41.1532 290.156 40.8972 291.052 40.3852C292.012 39.8732 292.492 39.3612 292.492 38.8492V27.2332C292.492 26.7212 292.428 25.9532 292.3 24.9292C292.172 23.9052 292.044 23.2652 291.916 23.0092C291.532 22.1772 290.188 21.7612 287.884 21.7612C287.756 21.6972 287.692 21.3772 287.692 20.8012C287.692 20.1612 287.788 19.8412 287.98 19.8412ZM330.39 36.8332C330.902 36.9612 331.158 37.2172 331.158 37.6012V38.5612C331.158 38.9452 330.71 39.5852 329.814 40.4812C328.982 41.3772 328.054 42.1452 327.03 42.7852C324.662 44.4492 322.358 45.2812 320.118 45.2812C317.942 45.2812 316.054 44.9932 314.454 44.4172C312.854 43.7772 311.446 42.8812 310.23 41.7292C307.542 39.1692 306.198 35.9372 306.198 32.0332C306.198 28.0652 307.862 24.4812 311.19 21.2812C314.582 17.9532 318.422 16.2892 322.71 16.2892C325.718 16.2892 327.862 16.6732 329.142 17.4412C329.974 18.2732 330.39 19.2332 330.39 20.3212C330.39 21.3452 330.07 22.3052 329.43 23.2012C328.79 24.0332 327.958 24.4492 326.934 24.4492C325.91 24.4492 325.11 24.1292 324.534 23.4892C323.958 22.7852 323.414 22.1452 322.902 21.5692C321.75 20.2892 320.31 19.6492 318.582 19.6492C317.302 19.6492 316.214 20.6092 315.318 22.5292C314.55 24.1932 314.166 26.1452 314.166 28.3852C314.166 30.6252 314.454 32.4812 315.03 33.9532C315.606 35.4252 316.342 36.6092 317.238 37.5052C318.902 39.1692 320.79 40.0012 322.902 40.0012C325.014 40.0012 326.614 39.6492 327.702 38.9452C328.79 38.2412 329.686 37.5372 330.39 36.8332ZM333.006 19.7452C333.518 19.0412 334.19 18.3372 335.022 17.6332H337.806V14.2732C339.022 13.1852 340.174 12.0332 341.262 10.8172C342.414 9.6012 343.47 8.5132 344.43 7.5532C344.814 7.2972 345.166 7.2012 345.486 7.2652C345.806 7.2652 345.998 7.3612 346.062 7.5532V17.6332H353.262C353.518 17.6332 353.646 17.9532 353.646 18.5932C353.646 19.1692 353.166 19.8412 352.206 20.6092H346.062V36.2572C346.062 39.4572 347.214 41.0572 349.518 41.0572C350.222 41.0572 350.926 40.8652 351.63 40.4812C352.334 40.0332 352.75 39.7452 352.878 39.6172C353.134 39.8732 353.262 40.0972 353.262 40.2892C353.262 40.8652 353.134 41.2812 352.878 41.5372C352.686 41.7932 352.366 42.1132 351.918 42.4972C351.534 42.8812 351.054 43.2652 350.478 43.6492C348.814 44.6732 347.406 45.1852 346.254 45.1852C345.166 45.1852 344.11 45.0252 343.086 44.7052C342.126 44.4492 341.262 43.9372 340.494 43.1692C338.702 41.5692 337.806 39.1372 337.806 35.8732V20.6092H333.294C333.102 20.4812 333.006 20.1932 333.006 19.7452ZM369.979 17.5372C369.851 17.8572 369.627 19.0412 369.307 21.0892V35.4892C369.307 38.6892 369.403 40.5452 369.595 41.0572C369.787 41.5052 370.043 41.8252 370.363 42.0172C370.683 42.1452 371.035 42.2732 371.419 42.4012C372.059 42.5292 372.731 42.5932 373.435 42.5932C373.563 42.8492 373.627 43.2652 373.627 43.8412C373.627 44.4172 373.563 44.8012 373.435 44.9932C370.235 44.6732 367.483 44.5132 365.179 44.5132C362.555 44.5132 359.643 44.6732 356.443 44.9932C356.315 44.8012 356.251 44.4172 356.251 43.8412C356.251 43.2652 356.315 42.8492 356.443 42.5932C357.787 42.5932 358.779 42.4652 359.419 42.2092C360.059 41.8892 360.443 41.6332 360.571 41.4412C360.891 40.6732 361.051 38.6892 361.051 35.4892V27.2332C361.051 26.7212 360.987 25.9532 360.859 24.9292C360.731 23.9052 360.603 23.2652 360.475 23.0092C360.027 22.1772 358.683 21.7612 356.443 21.7612C356.315 21.6972 356.251 21.3772 356.251 20.8012C356.315 20.1612 356.411 19.8412 356.539 19.8412C358.971 19.6492 361.339 19.2012 363.643 18.4972C365.947 17.7292 367.707 17.0572 368.923 16.4812C369.115 16.5452 369.339 16.7052 369.595 16.9612C369.851 17.2172 369.979 17.4092 369.979 17.5372ZM359.995 5.6332C359.995 4.3532 360.411 3.2972 361.243 2.4652C362.139 1.5692 363.227 1.1212 364.507 1.1212C365.787 1.1212 366.875 1.5692 367.771 2.4652C368.667 3.2972 369.115 4.3532 369.115 5.6332C369.115 6.9132 368.667 8.0012 367.771 8.8972C366.875 9.7932 365.787 10.2412 364.507 10.2412C363.227 10.2412 362.139 9.7932 361.243 8.8972C360.411 8.0012 359.995 6.9132 359.995 5.6332ZM394.392 16.6732C396.184 16.9292 398.36 17.0572 400.92 17.0572C403.544 17.0572 405.752 16.9292 407.544 16.6732C407.672 16.8012 407.736 17.1532 407.736 17.7292C407.8 18.3052 407.736 18.7212 407.544 18.9772C406.072 18.9772 404.888 19.2332 403.992 19.7452C403.16 20.1932 402.648 20.6412 402.456 21.0892L392.664 41.8252C391.448 44.1932 390.52 45.3772 389.88 45.3772C389.688 45.3772 389.432 45.2172 389.112 44.8972L377.784 21.3772C377.336 20.4172 376.6 19.7772 375.576 19.4572C374.616 19.1372 374.008 18.9772 373.752 18.9772C373.56 18.7212 373.496 18.3372 373.56 17.8252C373.56 17.2492 373.624 16.8652 373.752 16.6732C374.2 16.7372 375.16 16.8012 376.632 16.8652C378.168 16.9292 379.32 16.9932 380.088 17.0572C380.92 17.0572 382.424 17.0572 384.6 17.0572C386.84 17.0572 388.728 16.9292 390.264 16.6732C390.456 16.8012 390.552 17.1852 390.552 17.8252C390.552 18.4012 390.456 18.7852 390.264 18.9772C389.88 18.9772 389.304 19.1052 388.536 19.3612C387.192 19.7452 386.52 20.1932 386.52 20.7052V21.0892C386.52 21.2812 386.584 21.4732 386.712 21.6652L393.24 34.1452L398.232 23.0092C398.68 21.8572 398.904 21.0892 398.904 20.7052C398.904 20.3212 398.68 20.0012 398.232 19.7452C397.848 19.4892 397.368 19.2972 396.792 19.1692C395.896 19.0412 395.096 18.9772 394.392 18.9772C394.264 18.8492 394.2 18.4972 394.2 17.9212C394.2 17.2812 394.264 16.8652 394.392 16.6732ZM418.607 26.8492C418.735 26.8492 419.151 26.8492 419.855 26.8492C420.623 26.7852 421.455 26.7212 422.351 26.6572C424.399 26.5932 425.871 26.4972 426.767 26.3692C427.343 26.3052 427.631 25.9532 427.631 25.3132C427.631 24.6092 427.567 23.8732 427.439 23.1052C427.311 22.3372 427.087 21.6652 426.767 21.0892C426.063 19.6812 425.135 18.9772 423.983 18.9772C422.895 18.9772 422.031 19.2972 421.391 19.9372C420.751 20.5132 420.207 21.2172 419.759 22.0492C418.991 23.7132 418.607 25.3132 418.607 26.8492ZM433.775 28.5772C429.935 28.8972 424.879 29.1532 418.607 29.3452C418.607 33.2492 419.695 36.1292 421.871 37.9852C423.535 39.3292 425.327 40.0012 427.247 40.0012C429.231 40.0012 430.767 39.6492 431.855 38.9452C432.943 38.2412 433.839 37.5372 434.543 36.8332C435.055 36.9612 435.311 37.3132 435.311 37.8892C435.311 38.4652 435.183 38.9452 434.927 39.3292C434.735 39.6492 434.319 40.1612 433.679 40.8652C433.039 41.5052 432.239 42.1452 431.279 42.7852C428.847 44.4492 426.511 45.2812 424.271 45.2812C422.031 45.2812 420.111 44.9932 418.511 44.4172C416.911 43.7772 415.503 42.8812 414.287 41.7292C411.663 39.2332 410.351 36.0012 410.351 32.0332C410.351 27.9372 411.759 24.3532 414.575 21.2812C417.583 18.0172 420.847 16.3852 424.367 16.3852C428.143 16.3852 431.023 17.5052 433.007 19.7452C434.671 21.5372 435.503 23.6172 435.503 25.9852C435.503 26.6892 435.343 27.2972 435.023 27.8092C434.703 28.3212 434.287 28.5772 433.775 28.5772ZM467.016 24.8332C465.352 26.3692 464.52 28.3532 464.52 30.7852C464.52 33.0252 465.192 35.1052 466.536 37.0252C468.072 39.0732 470.216 40.0972 472.968 40.0972C474.568 40.0972 475.912 39.6172 477 38.6572L467.016 24.8332ZM472.392 6.3052C471.112 6.3052 470.216 6.9132 469.704 8.1292C469.192 9.3452 468.936 10.6892 468.936 12.1612C468.936 13.5692 469.32 14.8812 470.088 16.0972C470.856 17.2492 471.496 18.1772 472.008 18.8812C473.416 18.1772 474.44 17.3132 475.08 16.2892C475.784 15.2652 476.136 14.2092 476.136 13.1212C476.136 11.9692 476.072 11.0732 475.944 10.4332C475.88 9.7292 475.688 9.0572 475.368 8.4172C474.728 7.0092 473.736 6.3052 472.392 6.3052ZM478.728 40.8652C475.848 43.6172 472.2 44.9932 467.784 44.9932C464.904 44.9932 462.344 44.1292 460.104 42.4012C457.608 40.4172 456.36 37.8892 456.36 34.8172C456.36 30.2732 458.344 26.7212 462.312 24.1612C463.336 23.4572 464.296 22.8172 465.192 22.2412C464.488 21.2812 463.688 20.1612 462.792 18.8812C461.96 17.5372 461.544 16.0012 461.544 14.2732C461.544 12.4812 461.832 10.9772 462.408 9.7612C462.984 8.5452 463.784 7.4892 464.808 6.5932C466.92 4.7372 469.544 3.8092 472.68 3.8092C475.88 3.8092 478.344 4.4812 480.072 5.8252C481.8 7.1692 482.664 8.9612 482.664 11.2012C482.664 14.9132 480.776 17.8252 477 19.9372C475.912 20.5132 474.824 21.0252 473.736 21.4732L482.568 33.2812C485.128 30.2732 486.408 28.5772 486.408 28.1932C486.408 27.7452 486.248 27.4572 485.928 27.3292C485.672 27.2012 485.352 27.1052 484.968 27.0412C484.648 26.9772 484.296 26.9772 483.912 27.0412C483.592 27.0412 483.368 26.9772 483.24 26.8492C483.176 26.7212 483.144 26.4012 483.144 25.8892C483.144 25.3132 483.208 24.9932 483.336 24.9292L487.656 25.0252C490.152 25.0252 492.872 24.9612 495.816 24.8332C495.944 24.8972 495.976 25.2172 495.912 25.7932C495.912 26.3692 495.848 26.7532 495.72 26.9452H494.952C493.288 26.9452 492.072 27.2332 491.304 27.8092C490.856 28.2572 490.024 29.1532 488.808 30.4972C486.696 32.9292 485.192 34.5932 484.296 35.4892C484.424 35.6172 484.68 35.9052 485.064 36.3532C485.448 36.8012 485.864 37.2812 486.312 37.7932C487.592 39.0092 488.456 39.6172 488.904 39.6172C489.416 39.6172 489.864 39.4892 490.248 39.2332C490.696 38.9772 491.08 38.6572 491.4 38.2732C491.784 37.8892 492.104 37.5052 492.36 37.1212C492.616 36.7372 492.84 36.4492 493.032 36.2572C493.352 36.2572 493.672 36.3852 493.992 36.6412C494.312 36.8332 494.536 37.0892 494.664 37.4092C494.6 37.6012 494.28 38.1132 493.704 38.9452C493.128 39.7132 492.392 40.5452 491.496 41.4412C489.32 43.7452 487.368 44.8972 485.64 44.8972C483.976 44.8972 482.632 44.5132 481.608 43.7452C480.584 42.9132 479.624 41.9532 478.728 40.8652ZM47.0441 78.7532C50.7561 79.0732 53.2841 79.2332 54.6281 79.2332C56.0361 79.2332 57.2521 79.1692 58.2761 79.0412C59.3001 78.9132 60.4521 78.8172 61.7321 78.7532C61.8601 78.9452 61.9241 79.3292 61.9241 79.9052C61.9241 80.4812 61.8601 80.8972 61.7321 81.1532C59.3001 81.1532 57.7961 81.5052 57.2201 82.2092C56.1321 83.9372 55.2681 85.6972 54.6281 87.4892L44.2601 118.209C43.9401 118.977 43.5241 119.713 43.0121 120.417C42.5641 121.057 42.1161 121.377 41.6681 121.377C41.2201 121.377 40.8361 121.089 40.5161 120.513L30.0521 94.2092L21.9881 117.921C21.6041 119.073 21.1881 119.937 20.7401 120.513C20.2921 121.089 19.9081 121.377 19.5881 121.377C19.2681 121.377 18.9481 121.089 18.6281 120.513L7.20406 88.3532C6.56406 86.5612 5.82806 84.8332 4.99606 83.1692C4.61206 82.3372 3.90806 81.7932 2.88406 81.5372C1.86006 81.2812 1.12406 81.1532 0.676059 81.1532C0.484059 80.8972 0.420059 80.4812 0.484059 79.9052C0.484059 79.3292 0.548059 78.9452 0.676059 78.7532C3.87606 79.0732 6.88406 79.2332 9.70006 79.2332C12.5801 79.2332 15.5561 79.0732 18.6281 78.7532C18.7561 78.9452 18.8201 79.3292 18.8201 79.9052C18.8841 80.4812 18.8201 80.8972 18.6281 81.1532C16.0681 81.1532 14.7881 81.6972 14.7881 82.7852C14.7881 83.2972 14.9481 84.0012 15.2681 84.8972C15.6521 85.7932 16.0041 86.6892 16.3241 87.5852L22.5641 104.769L31.0121 81.1532C31.2041 80.5132 31.4921 79.9692 31.8761 79.5212C32.2601 79.0092 32.5801 78.7532 32.8361 78.7532C33.1561 78.7532 33.4441 79.1052 33.7001 79.8092L44.5481 107.169L50.6921 87.6812C51.5881 85.3772 52.0361 83.6812 52.0361 82.5932C52.0361 82.1452 51.5241 81.8252 50.5001 81.6332C49.1561 81.3132 48.0041 81.1532 47.0441 81.1532C46.9161 80.8972 46.8521 80.4812 46.8521 79.9052C46.8521 79.3292 46.9161 78.9452 47.0441 78.7532ZM77.8501 94.9772C74.9701 94.9772 73.3701 97.3452 73.0501 102.081C72.9221 103.361 72.8581 104.641 72.8581 105.921C72.8581 107.201 72.9541 108.609 73.1461 110.145C73.4021 111.617 73.8181 112.961 74.3941 114.177C75.6101 117.057 77.2421 118.497 79.2901 118.497C82.2981 118.497 83.9941 116.161 84.3781 111.489C84.4421 110.273 84.4741 109.025 84.4741 107.745C84.4741 106.465 84.3461 105.057 84.0901 103.521C83.8341 101.985 83.4181 100.609 82.8421 99.3932C81.6261 96.4492 79.9621 94.9772 77.8501 94.9772ZM78.6181 92.3852C80.7941 92.3852 82.7781 92.7372 84.5701 93.4412C86.4261 94.1452 88.0261 95.1372 89.3701 96.4172C92.1221 99.1052 93.4981 102.465 93.4981 106.497C93.4981 110.465 92.0581 113.921 89.1781 116.865C86.4261 119.745 82.9381 121.185 78.7141 121.185C74.2981 121.185 70.7141 119.809 67.9621 117.057C65.2101 114.305 63.8341 110.945 63.8341 106.977C63.8341 103.073 65.2421 99.6492 68.0581 96.7052C70.8741 93.8252 74.3941 92.3852 78.6181 92.3852ZM105.529 120.513C102.905 120.513 99.9931 120.673 96.7931 120.993C96.6651 120.801 96.6011 120.417 96.6011 119.841C96.6011 119.265 96.6651 118.849 96.7931 118.593C98.1371 118.593 99.1291 118.465 99.7691 118.209C100.409 117.889 100.793 117.633 100.921 117.441C101.241 116.673 101.401 114.689 101.401 111.489V103.233C101.401 102.721 101.337 101.953 101.209 100.929C101.081 99.9052 100.953 99.2652 100.825 99.0092C100.377 98.1772 99.0331 97.7612 96.7931 97.7612C96.6651 97.6972 96.6011 97.3772 96.6011 96.8012C96.6651 96.1612 96.7611 95.8412 96.8891 95.8412C99.3211 95.6492 101.689 95.2012 103.993 94.4972C106.297 93.7292 108.057 93.0572 109.273 92.4812C109.465 92.5452 109.689 92.7052 109.945 92.9612C110.201 93.2172 110.297 93.4092 110.233 93.5372C110.233 93.6652 110.201 93.9532 110.137 94.4012C110.073 94.8492 110.009 95.3612 109.945 95.9372C109.881 96.4492 109.817 96.9612 109.753 97.4732C109.689 97.9852 109.657 98.3372 109.657 98.5292C109.657 98.6572 109.721 98.7532 109.849 98.8172C109.977 98.8172 110.041 98.7852 110.041 98.7212C111.193 96.8012 112.153 95.4572 112.921 94.6892C114.585 93.1532 116.281 92.3852 118.009 92.3852C119.929 92.3852 121.241 92.7372 121.945 93.4412C122.457 94.2092 122.713 95.0732 122.713 96.0332C122.713 96.9292 122.617 97.6972 122.425 98.3372C122.233 98.9132 121.945 99.4572 121.561 99.9692C120.793 101.057 119.897 101.601 118.873 101.601C118.297 101.601 117.785 101.409 117.337 101.025C116.953 100.641 116.569 100.289 116.185 99.9692C115.865 99.6492 115.513 99.3612 115.129 99.1052C114.809 98.7852 114.361 98.6252 113.785 98.6252C113.209 98.6252 112.665 98.8492 112.153 99.2972C111.641 99.6812 111.193 100.161 110.809 100.737C110.041 101.889 109.657 102.913 109.657 103.809V111.489C109.657 114.689 109.753 116.545 109.945 117.057C110.137 117.505 110.393 117.825 110.713 118.017C111.033 118.145 111.385 118.273 111.769 118.401C112.409 118.529 113.081 118.593 113.785 118.593C113.913 118.849 113.977 119.265 113.977 119.841C113.977 120.417 113.913 120.801 113.785 120.993C110.585 120.673 107.833 120.513 105.529 120.513ZM150.62 93.1532H152.828C153.404 93.1532 155.804 93.0572 160.028 92.8652C160.22 93.1852 160.284 93.6012 160.22 94.1132C160.156 94.6252 160.028 94.9452 159.836 95.0732C156.956 95.4572 155.004 96.0012 153.98 96.7052C153.02 97.4092 151.804 98.4652 150.332 99.8732C148.86 101.217 147.164 102.753 145.244 104.481C147.996 107.681 149.948 109.921 151.1 111.201C152.316 112.417 153.34 113.505 154.172 114.465C155.068 115.425 155.868 116.193 156.572 116.769C157.276 117.281 157.916 117.665 158.492 117.921C159.26 118.241 160.348 118.401 161.756 118.401C161.948 118.785 162.012 119.201 161.948 119.649C161.884 120.033 161.82 120.257 161.756 120.321C160.412 120.833 158.524 121.089 156.092 121.089C151.996 121.089 148.86 119.841 146.684 117.345C144.508 115.169 142.012 112.321 139.196 108.801C139.068 108.673 138.972 108.577 138.908 108.513C138.908 108.449 138.748 108.257 138.428 107.937V111.489C138.428 114.689 138.524 116.545 138.716 117.057C138.908 117.505 139.164 117.825 139.484 118.017C139.868 118.145 140.252 118.273 140.636 118.401C141.34 118.529 142.108 118.593 142.94 118.593C143.068 118.849 143.132 119.265 143.132 119.841C143.132 120.417 143.068 120.801 142.94 120.993C139.74 120.673 136.828 120.513 134.204 120.513C131.644 120.513 128.764 120.673 125.564 120.993C125.436 120.801 125.372 120.417 125.372 119.841C125.372 119.265 125.436 118.849 125.564 118.593C126.908 118.593 127.9 118.465 128.54 118.209C129.18 117.889 129.532 117.633 129.596 117.441C129.916 116.801 130.076 116.001 130.076 115.041C130.14 114.081 130.172 112.897 130.172 111.489V85.3772C130.172 83.9692 130.076 83.0732 129.884 82.6892C129.692 82.2412 129.404 81.9532 129.02 81.8252C128.7 81.6972 128.348 81.6012 127.964 81.5372C127.068 81.2812 126.396 81.1532 125.948 81.1532C125.82 81.1532 125.724 80.8652 125.66 80.2892C125.66 79.6492 125.756 79.2652 125.948 79.1372C130.236 78.6892 133.98 77.9532 137.18 76.9292C137.756 76.7372 138.076 76.6412 138.14 76.6412C138.588 76.7692 138.908 77.1532 139.1 77.7932C138.972 78.5612 138.844 79.2972 138.716 80.0012C138.524 80.9612 138.428 82.3692 138.428 84.2252L138.332 105.729C139.356 105.345 140.956 104.257 143.132 102.465C145.308 100.609 146.748 99.2652 147.452 98.4332C148.22 97.6012 148.604 97.0252 148.604 96.7052C148.604 96.3212 148.444 96.0652 148.124 95.9372C147.804 95.7452 147.42 95.5852 146.972 95.4572C146.204 95.2012 145.404 95.0732 144.572 95.0732C144.444 94.7532 144.38 94.3372 144.38 93.8252C144.444 93.3132 144.572 92.9932 144.764 92.8652C145.788 92.9292 146.78 92.9932 147.74 93.0572C148.7 93.1212 149.66 93.1532 150.62 93.1532ZM188.856 79.0412L198.552 78.8492C205.016 78.8492 209.304 81.0252 211.416 85.3772C212.12 86.8492 212.472 88.3852 212.472 89.9852C212.472 91.5852 212.152 92.9612 211.512 94.1132C210.936 95.2652 210.2 96.3212 209.304 97.2812C207.576 99.0732 205.752 100.193 203.832 100.641L213.048 112.449C214.968 114.945 217.24 116.705 219.864 117.729C221.272 118.305 222.488 118.593 223.512 118.593C223.704 118.849 223.768 119.297 223.704 119.937C223.64 120.513 223.576 120.865 223.512 120.993C221.72 121.121 219.288 121.185 216.216 121.185C213.144 121.185 210.808 120.673 209.208 119.649C207.608 118.625 206.392 117.569 205.56 116.481L195.288 102.753C195.16 102.625 194.968 102.433 194.712 102.177C194.52 101.921 194.328 101.793 194.136 101.793H193.176V111.489C193.176 112.897 193.176 114.081 193.176 115.041C193.24 116.001 193.368 116.705 193.56 117.153C193.752 117.537 194.008 117.825 194.328 118.017C194.712 118.145 195.096 118.273 195.48 118.401C196.184 118.529 196.952 118.593 197.784 118.593C197.912 118.849 197.976 119.265 197.976 119.841C197.976 120.417 197.912 120.801 197.784 120.993C191.768 120.417 185.752 120.417 179.736 120.993C179.608 120.801 179.544 120.417 179.544 119.841C179.544 119.265 179.608 118.849 179.736 118.593C181.08 118.593 182.072 118.465 182.712 118.209C183.352 117.889 183.736 117.633 183.864 117.441C184.184 116.673 184.344 114.689 184.344 111.489V88.1612C184.344 85.0892 184.184 83.1052 183.864 82.2092C183.416 81.5692 182.04 81.2492 179.736 81.2492C179.608 80.9932 179.544 80.5772 179.544 80.0012C179.544 79.4252 179.608 79.0412 179.736 78.8492C181.208 78.9772 182.744 79.0412 184.344 79.0412H188.856ZM202.104 84.8012C200.888 82.5612 199.096 81.4412 196.728 81.4412C195.96 81.4412 195.256 81.4732 194.616 81.5372C194.04 81.6012 193.688 81.8252 193.56 82.2092C193.304 82.7212 193.176 84.0012 193.176 86.0492V99.2972H196.152C198.008 99.2972 199.608 98.5292 200.952 96.9932C202.36 95.4572 203.064 93.3452 203.064 90.6572C203.064 87.9052 202.744 85.9532 202.104 84.8012ZM236.087 102.849C236.215 102.849 236.631 102.849 237.335 102.849C238.103 102.785 238.935 102.721 239.831 102.657C241.879 102.593 243.351 102.497 244.247 102.369C244.823 102.305 245.111 101.953 245.111 101.313C245.111 100.609 245.047 99.8732 244.919 99.1052C244.791 98.3372 244.567 97.6652 244.247 97.0892C243.543 95.6812 242.615 94.9772 241.463 94.9772C240.375 94.9772 239.511 95.2972 238.871 95.9372C238.231 96.5132 237.687 97.2172 237.239 98.0492C236.471 99.7132 236.087 101.313 236.087 102.849ZM251.255 104.577C247.415 104.897 242.359 105.153 236.087 105.345C236.087 109.249 237.175 112.129 239.351 113.985C241.015 115.329 242.807 116.001 244.727 116.001C246.711 116.001 248.247 115.649 249.335 114.945C250.423 114.241 251.319 113.537 252.023 112.833C252.535 112.961 252.791 113.313 252.791 113.889C252.791 114.465 252.663 114.945 252.407 115.329C252.215 115.649 251.799 116.161 251.159 116.865C250.519 117.505 249.719 118.145 248.759 118.785C246.327 120.449 243.991 121.281 241.751 121.281C239.511 121.281 237.591 120.993 235.991 120.417C234.391 119.777 232.983 118.881 231.767 117.729C229.143 115.233 227.831 112.001 227.831 108.033C227.831 103.937 229.239 100.353 232.055 97.2812C235.063 94.0172 238.327 92.3852 241.847 92.3852C245.623 92.3852 248.503 93.5052 250.487 95.7452C252.151 97.5372 252.983 99.6172 252.983 101.985C252.983 102.689 252.823 103.297 252.503 103.809C252.183 104.321 251.767 104.577 251.255 104.577ZM265.377 120.513C262.753 120.513 259.841 120.673 256.641 120.993C256.513 120.801 256.449 120.417 256.449 119.841C256.449 119.265 256.513 118.849 256.641 118.593C257.985 118.593 258.977 118.465 259.617 118.209C260.257 117.889 260.641 117.633 260.769 117.441C261.089 116.673 261.249 114.689 261.249 111.489V103.233C261.249 102.721 261.185 101.953 261.057 100.929C260.929 99.9052 260.801 99.2652 260.673 99.0092C260.225 98.1772 258.881 97.7612 256.641 97.7612C256.513 97.6972 256.449 97.3772 256.449 96.8012C256.513 96.1612 256.609 95.8412 256.737 95.8412C259.169 95.6492 261.537 95.2012 263.841 94.4972C266.145 93.7292 267.905 93.0572 269.121 92.4812C269.313 92.5452 269.537 92.7052 269.793 92.9612C270.049 93.2172 270.145 93.4092 270.081 93.5372C269.825 94.6252 269.665 95.5532 269.601 96.3212C269.537 97.0892 269.537 97.4732 269.601 97.4732C269.665 97.4732 269.729 97.4412 269.793 97.3772C269.857 97.3132 269.953 97.2492 270.081 97.1852C270.977 96.1612 272.065 95.2652 273.345 94.4972C275.585 93.1532 277.569 92.4812 279.297 92.4812C281.089 92.4812 282.561 92.8652 283.713 93.6332C284.929 94.4012 285.921 95.8092 286.689 97.8572C286.817 97.8572 287.041 97.6972 287.361 97.3772C287.681 96.9932 288.225 96.5132 288.993 95.9372C289.825 95.3612 290.721 94.8172 291.681 94.3052C293.985 93.0892 295.905 92.4812 297.441 92.4812C299.041 92.4812 300.385 92.8012 301.473 93.4412C302.625 94.0172 303.489 94.9132 304.065 96.1292C305.153 98.3052 305.697 102.049 305.697 107.361V111.489C305.697 112.897 305.697 114.081 305.697 115.041C305.761 116.001 305.889 116.705 306.081 117.153C306.273 117.537 306.529 117.825 306.849 118.017C307.233 118.145 307.649 118.273 308.097 118.401C308.737 118.529 309.473 118.593 310.305 118.593C310.433 118.849 310.497 119.265 310.497 119.841C310.497 120.417 310.433 120.801 310.305 120.993C307.105 120.673 304.321 120.513 301.953 120.513C299.649 120.513 296.897 120.673 293.697 120.993C293.569 120.801 293.505 120.417 293.505 119.841C293.505 119.265 293.569 118.849 293.697 118.593C294.081 118.593 294.689 118.529 295.521 118.401C296.353 118.209 296.833 117.889 296.961 117.441C297.281 116.801 297.441 116.001 297.441 115.041C297.505 114.081 297.537 112.897 297.537 111.489V106.497C297.537 102.465 296.769 99.7452 295.233 98.3372C294.721 97.8252 294.081 97.5692 293.313 97.5692C292.609 97.5692 291.905 97.6972 291.201 97.9532C290.497 98.2092 289.857 98.4972 289.281 98.8172C287.937 99.6492 287.265 100.385 287.265 101.025V101.409C287.457 103.265 287.553 105.249 287.553 107.361V111.489C287.553 114.689 287.649 116.545 287.841 117.057C288.033 117.505 288.289 117.825 288.609 118.017C288.993 118.145 289.409 118.273 289.857 118.401C290.497 118.529 291.201 118.593 291.969 118.593C292.097 118.849 292.161 119.265 292.161 119.841C292.161 120.417 292.097 120.801 291.969 120.993C288.769 120.673 285.921 120.513 283.425 120.513C281.249 120.513 278.561 120.673 275.361 120.993C275.233 120.801 275.169 120.417 275.169 119.841C275.169 119.265 275.233 118.849 275.361 118.593C275.809 118.593 276.449 118.529 277.281 118.401C278.177 118.209 278.721 117.825 278.913 117.249C279.169 116.545 279.297 114.625 279.297 111.489V106.497C279.297 100.545 277.889 97.5692 275.073 97.5692C273.857 97.5692 272.801 97.8572 271.905 98.4332C270.305 99.5852 269.505 100.481 269.505 101.121V111.489C269.505 114.689 269.601 116.545 269.793 117.057C269.985 117.505 270.241 117.825 270.561 118.017C270.881 118.145 271.233 118.273 271.617 118.401C272.257 118.529 272.929 118.593 273.633 118.593C273.761 118.849 273.825 119.265 273.825 119.841C273.825 120.417 273.761 120.801 273.633 120.993C270.433 120.673 267.681 120.513 265.377 120.513ZM326.149 94.9772C323.269 94.9772 321.669 97.3452 321.349 102.081C321.221 103.361 321.157 104.641 321.157 105.921C321.157 107.201 321.253 108.609 321.445 110.145C321.701 111.617 322.117 112.961 322.693 114.177C323.909 117.057 325.541 118.497 327.589 118.497C330.597 118.497 332.293 116.161 332.677 111.489C332.741 110.273 332.773 109.025 332.773 107.745C332.773 106.465 332.645 105.057 332.389 103.521C332.133 101.985 331.717 100.609 331.141 99.3932C329.925 96.4492 328.261 94.9772 326.149 94.9772ZM326.917 92.3852C329.093 92.3852 331.077 92.7372 332.869 93.4412C334.725 94.1452 336.325 95.1372 337.669 96.4172C340.421 99.1052 341.797 102.465 341.797 106.497C341.797 110.465 340.357 113.921 337.477 116.865C334.725 119.745 331.237 121.185 327.013 121.185C322.597 121.185 319.013 119.809 316.261 117.057C313.509 114.305 312.133 110.945 312.133 106.977C312.133 103.073 313.541 99.6492 316.357 96.7052C319.173 93.8252 322.693 92.3852 326.917 92.3852ZM343.556 95.7452C344.068 95.0412 344.74 94.3372 345.572 93.6332H348.356V90.2732C349.572 89.1852 350.724 88.0332 351.812 86.8172C352.964 85.6012 354.02 84.5132 354.98 83.5532C355.364 83.2972 355.716 83.2012 356.036 83.2652C356.356 83.2652 356.548 83.3612 356.612 83.5532V93.6332H363.812C364.068 93.6332 364.196 93.9532 364.196 94.5932C364.196 95.1692 363.716 95.8412 362.756 96.6092H356.612V112.257C356.612 115.457 357.764 117.057 360.068 117.057C360.772 117.057 361.476 116.865 362.18 116.481C362.884 116.033 363.3 115.745 363.428 115.617C363.684 115.873 363.812 116.097 363.812 116.289C363.812 116.865 363.684 117.281 363.428 117.537C363.236 117.793 362.916 118.113 362.468 118.497C362.084 118.881 361.604 119.265 361.028 119.649C359.364 120.673 357.956 121.185 356.804 121.185C355.716 121.185 354.66 121.025 353.636 120.705C352.676 120.449 351.812 119.937 351.044 119.169C349.252 117.569 348.356 115.137 348.356 111.873V96.6092H343.844C343.652 96.4812 343.556 96.1932 343.556 95.7452ZM375.441 102.849C375.569 102.849 375.985 102.849 376.689 102.849C377.457 102.785 378.289 102.721 379.185 102.657C381.233 102.593 382.705 102.497 383.601 102.369C384.177 102.305 384.465 101.953 384.465 101.313C384.465 100.609 384.401 99.8732 384.273 99.1052C384.145 98.3372 383.921 97.6652 383.601 97.0892C382.897 95.6812 381.969 94.9772 380.817 94.9772C379.729 94.9772 378.865 95.2972 378.225 95.9372C377.585 96.5132 377.041 97.2172 376.593 98.0492C375.825 99.7132 375.441 101.313 375.441 102.849ZM390.609 104.577C386.769 104.897 381.713 105.153 375.441 105.345C375.441 109.249 376.529 112.129 378.705 113.985C380.369 115.329 382.161 116.001 384.081 116.001C386.065 116.001 387.601 115.649 388.689 114.945C389.777 114.241 390.673 113.537 391.377 112.833C391.889 112.961 392.145 113.313 392.145 113.889C392.145 114.465 392.017 114.945 391.761 115.329C391.569 115.649 391.153 116.161 390.513 116.865C389.873 117.505 389.073 118.145 388.113 118.785C385.681 120.449 383.345 121.281 381.105 121.281C378.865 121.281 376.945 120.993 375.345 120.417C373.745 119.777 372.337 118.881 371.121 117.729C368.497 115.233 367.185 112.001 367.185 108.033C367.185 103.937 368.593 100.353 371.409 97.2812C374.417 94.0172 377.681 92.3852 381.201 92.3852C384.977 92.3852 387.857 93.5052 389.841 95.7452C391.505 97.5372 392.337 99.6172 392.337 101.985C392.337 102.689 392.177 103.297 391.857 103.809C391.537 104.321 391.121 104.577 390.609 104.577ZM412.507 120.993C409.307 120.673 406.395 120.513 403.771 120.513C401.211 120.513 398.331 120.673 395.131 120.993C395.003 120.801 394.939 120.417 394.939 119.841C394.939 119.265 395.003 118.849 395.131 118.593C396.475 118.593 397.467 118.465 398.107 118.209C398.747 117.889 399.099 117.633 399.163 117.441C399.483 116.801 399.643 116.001 399.643 115.041C399.707 114.081 399.739 112.897 399.739 111.489V85.3772C399.739 83.9692 399.643 83.0732 399.451 82.6892C399.259 82.2412 398.971 81.9532 398.587 81.8252C398.267 81.6972 397.915 81.6012 397.531 81.5372C396.635 81.2812 395.963 81.1532 395.515 81.1532C395.387 81.1532 395.291 80.8652 395.227 80.2892C395.227 79.6492 395.323 79.2652 395.515 79.1372C399.803 78.6892 403.547 77.9532 406.747 76.9292C407.323 76.7372 407.643 76.6412 407.707 76.6412C408.155 76.7692 408.475 77.1532 408.667 77.7932C408.539 78.5612 408.411 79.2972 408.283 80.0012C408.091 80.9612 407.995 82.3692 407.995 84.2252V111.489C407.995 114.689 408.091 116.545 408.283 117.057C408.475 117.505 408.731 117.825 409.051 118.017C409.435 118.145 409.819 118.273 410.203 118.401C410.907 118.529 411.675 118.593 412.507 118.593C412.635 118.849 412.699 119.265 412.699 119.841C412.699 120.417 412.635 120.801 412.507 120.993ZM432.538 92.6732C434.33 92.9292 436.506 93.0572 439.066 93.0572C441.69 93.0572 443.898 92.9292 445.69 92.6732C445.818 92.8012 445.882 93.1532 445.882 93.7292C445.946 94.3052 445.882 94.7212 445.69 94.9772C444.218 94.9772 443.034 95.2332 442.138 95.7452C441.306 96.1932 440.794 96.6412 440.602 97.0892L427.738 124.257C425.882 127.841 423.77 130.593 421.402 132.513C419.738 133.857 418.17 134.529 416.698 134.529C415.226 134.529 414.106 134.177 413.338 133.473C412.634 132.833 412.282 131.969 412.282 130.881C412.282 129.857 412.762 128.961 413.722 128.193C416.218 128.193 418.266 127.905 419.866 127.329C421.466 126.753 422.906 125.377 424.186 123.201C424.826 122.241 425.562 120.769 426.394 118.785L415.93 97.3772C415.482 96.4172 414.746 95.7772 413.722 95.4572C412.762 95.1372 412.154 94.9772 411.898 94.9772C411.706 94.7212 411.642 94.3372 411.706 93.8252C411.706 93.2492 411.77 92.8652 411.898 92.6732C412.346 92.7372 413.306 92.8012 414.778 92.8652C416.314 92.9292 417.466 92.9932 418.234 93.0572C419.066 93.0572 420.57 93.0572 422.746 93.0572C424.986 93.0572 426.874 92.9292 428.41 92.6732C428.602 92.8012 428.698 93.1852 428.698 93.8252C428.698 94.4012 428.602 94.7852 428.41 94.9772C428.026 94.9772 427.45 95.1052 426.682 95.3612C425.338 95.7452 424.666 96.1932 424.666 96.7052V97.0892C424.666 97.2812 424.73 97.4732 424.858 97.6652L431.386 110.145L436.378 99.0092C436.826 97.8572 437.05 97.0892 437.05 96.7052C437.05 96.3212 436.826 96.0012 436.378 95.7452C435.994 95.4892 435.514 95.2972 434.938 95.1692C434.042 95.0412 433.242 94.9772 432.538 94.9772C432.41 94.8492 432.346 94.4972 432.346 93.9212C432.346 93.2812 432.41 92.8652 432.538 92.6732Z" fill="#1B0A42"/>
</svg>
